<?xml version="1.0" encoding="UTF-8" standalone="no"?>
<!DOCTYPE svg PUBLIC "-//W3C//DTD SVG 1.1//EN" "http://www.w3.org/Graphics/SVG/1.1/DTD/svg11.dtd">
<svg xmlns="http://www.w3.org/2000/svg" version="1.1" viewBox="0.00 0.00 1024.00 1024.00">
<path fill="#1fa048" d="
  M 504.48 371.21
  Q 478.41 378.47 450.48 379.80
  C 398.05 382.30 346.33 362.89 317.13 317.46
  Q 300.86 292.15 295.59 261.79
  A 0.75 0.74 -10.9 0 1 296.17 260.94
  Q 333.79 253.31 372.75 255.32
  Q 379.55 255.67 389.98 257.10
  C 417.80 260.93 444.15 270.83 464.56 290.46
  C 486.77 311.82 500.26 339.92 505.05 370.33
  A 0.80 0.80 0.0 0 1 504.48 371.21
  Z"
/>
<path fill="#1fa048" d="
  M 728.80 261.16
  A 0.75 0.75 0.0 0 1 729.38 262.03
  C 725.08 287.03 714.36 310.77 698.27 329.82
  C 668.66 364.90 623.64 381.07 578.51 379.97
  Q 548.22 379.23 519.65 371.49
  A 1.08 1.08 0.0 0 1 518.87 370.26
  C 526.11 329.66 548.59 292.07 585.07 271.96
  C 602.49 262.36 622.68 257.93 642.46 255.81
  Q 647.97 255.21 658.55 254.98
  Q 667.15 254.80 674.74 254.97
  Q 702.28 255.59 728.80 261.16
  Z"
/>
<path fill="#ea2748" d="
  M 355.4064 407.4873
  A 54.37 54.20 -105.1 0 1 421.8986 445.8607
  A 54.37 54.20 -105.1 0 1 383.7336 512.4727
  A 54.37 54.20 -105.1 0 1 317.2414 474.0993
  A 54.37 54.20 -105.1 0 1 355.4064 407.4873
  Z"
/>
<path fill="#ea2748" d="
  M 487.2821 411.7217
  A 54.41 54.12 -117.6 0 1 560.4513 434.8664
  A 54.41 54.12 -117.6 0 1 537.6979 508.1583
  A 54.41 54.12 -117.6 0 1 464.5287 485.0136
  A 54.41 54.12 -117.6 0 1 487.2821 411.7217
  Z"
/>
<path fill="#ea2748" d="
  M 617.4688 420.7578
  A 54.52 54.31 -134.1 0 1 694.4114 422.1150
  A 54.52 54.31 -134.1 0 1 693.3512 499.0622
  A 54.52 54.31 -134.1 0 1 616.4086 497.7050
  A 54.52 54.31 -134.1 0 1 617.4688 420.7578
  Z"
/>
<path fill="#ea2748" d="
  M 422.0342 534.3366
  A 54.51 54.35 -109.5 0 1 491.4626 567.5776
  A 54.51 54.35 -109.5 0 1 458.4258 637.1034
  A 54.51 54.35 -109.5 0 1 388.9974 603.8624
  A 54.51 54.35 -109.5 0 1 422.0342 534.3366
  Z"
/>
<path fill="#ea2748" d="
  M 638.74 585.70
  A 54.46 54.46 0.0 0 1 584.28 640.16
  A 54.46 54.46 0.0 0 1 529.82 585.70
  A 54.46 54.46 0.0 0 1 584.28 531.24
  A 54.46 54.46 0.0 0 1 638.74 585.70
  Z"
/>
<path fill="#ea2748" d="
  M 543.5910 666.2081
  A 54.21 53.65 -54.9 0 1 556.3137 741.4090
  A 54.21 53.65 -54.9 0 1 481.2490 754.9119
  A 54.21 53.65 -54.9 0 1 468.5263 679.7110
  A 54.21 53.65 -54.9 0 1 543.5910 666.2081
  Z"
/>
</svg>
